<svg xmlns="http://www.w3.org/2000/svg" viewBox="0 0 300 122" width="300" height="122"><title>Tyne-Tees-Damp-Proofing-Logo-SVG (4)</title><defs><clipPath clipPathUnits="userSpaceOnUse" id="cp1"><path d="m1237.76-180.34v481.59h-699.53v-481.59z"></path></clipPath><clipPath clipPathUnits="userSpaceOnUse" id="cp2"><path d="m1237.92 356.54v481.6h-699.53v-481.6z"></path></clipPath></defs><style>		.s0 { fill: #ffffff } 		.s1 { fill: #000000 } 		.s2 { fill: #3e86fe } 	</style><g id="_Artboards_"><path id="Artboard 1" fill-rule="evenodd" class="s0" d="m300 0v122h-300v-122z"></path><path id="Artboard 1 copy" fill-rule="evenodd" class="s0" d="m494.3 367.2v460.3h-689.7v-460.3z"></path><path id="Artboard 1 copy 2" class="s0" d="m543.3-170.2h689.7v460.4h-689.7z"></path><path id="Artboard 1 copy 3" class="s0" d="m543.3 367.2h689.7v460.3h-689.7z"></path></g><g id="Layer 1"><g id="&lt;Group&gt;"><g id="Clip-Path: &lt;Clip Group&gt;" clip-path="url(#cp1)"><g id="&lt;Clip Group&gt;">				</g></g><g id="&lt;Group&gt;" style="opacity: .9"><path id="&lt;Path&gt;" fill-rule="evenodd" class="s1" d="m1237.8-180.4v481.6h-699.5v-481.6z"></path></g></g><g id="&lt;Group&gt;"><g id="Clip-Path: &lt;Clip Group&gt;" clip-path="url(#cp2)"><g id="&lt;Clip Group&gt;">				</g></g><g id="&lt;Group&gt;" style="opacity: .9"><path id="&lt;Path&gt;" fill-rule="evenodd" class="s1" d="m1237.9 356.6v481.5h-699.5v-481.5z"></path></g></g><path id="&lt;Path&gt;" fill-rule="evenodd" class="s0" d="m2134.7-1831.7v1534h-2352.5v-1534z"></path><path id="TYNE TEES DAMP PROOFING" class="s1" d="m1305.6-912.8v-2.5h12v2.5h-4.4v10.5h-3.3v-10.5zm16.9 4.9l-5-7.4h3.7l3 4.6 2.9-4.6h3.7l-5 7.4v5.6h-3.3zm9.8 5.5v-13.1h3.7l4.8 8.9v-8.9h3.1v13.1h-3.7l-4.7-9v9zm14.9 0v-13.1h9v2.6h-5.7v2.4h5.3v2.6h-5.3v3h5.9v2.5zm16.9-10.5v-2.6h12v2.6h-4.3v10.5h-3.4v-10.5zm13.8 10.5v-13.1h9v2.6h-5.7v2.4h5.4v2.6h-5.4v3h5.8v2.5zm12.2 0v-13.1h9.1v2.6h-5.6v2.4h5.3v2.6h-5.3v3h5.8v2.5zm21.3-12.7v2.8q-1.1-0.5-2.2-0.7-0.9-0.2-1.8-0.2-1.3 0-1.9 0.2-0.5 0.3-0.5 1 0 0.6 0.4 1 0.4 0.2 1.4 0.4l1.4 0.2q2.2 0.5 3.1 1.4 0.9 0.9 0.9 2.6 0 2.1-1.3 3.2-1.2 1-3.9 1-1.2 0-2.5-0.2-1.1-0.2-2.4-0.7v-2.9q1.3 0.7 2.4 1.1 1.2 0.3 2.2 0.3 1.1 0 1.7-0.3 0.6-0.5 0.6-1.2 0-0.6-0.5-0.9-0.3-0.4-1.5-0.6l-1.3-0.2q-2-0.5-2.8-1.4-0.9-0.9-0.9-2.4 0-2 1.2-3 1.3-1.2 3.6-1.2 1 0 2.2 0.3 1.1 0.1 2.4 0.4zm10 12.7v-13.1h3.6q2.8 0 4.3 0.4 1.5 0.5 2.6 1.5 0.9 0.8 1.2 2 0.5 1.1 0.5 2.6 0 1.5-0.5 2.7-0.3 1.1-1.2 2-1.2 1-2.6 1.4-1.5 0.5-4.3 0.5zm4.5-10.5h-1.2v8h1.2q2 0 3.2-1.1 1-1 1-3 0-1.9-1-3-1.2-0.9-3.2-0.9zm18.9 10.5l-0.8-2.4h-5.3l-0.8 2.4h-3.3l4.8-13.1h4l4.9 13.1zm-3.5-10l-1.8 5.2h3.5zm8.5 10v-13h4.4l2.9 6.9 3-6.9h4.2v13h-3.1v-9.6l-3 7h-2.1l-3-7v9.6zm17.8 0v-13h5.5q2.5 0 3.8 1 1.4 1.1 1.4 3.1 0 2.1-1.4 3.2-1.3 1.1-3.8 1.1h-2.2v4.6zm5.2-10.6h-1.9v3.5h1.9q1 0 1.5-0.4 0.6-0.5 0.6-1.4 0-0.8-0.6-1.3-0.5-0.4-1.5-0.4zm14.1 10.6v-13h5.5q2.6 0 3.8 1 1.4 1.1 1.4 3.1 0 2.1-1.4 3.2-1.2 1.1-3.8 1.1h-2.1v4.6zm5.1-10.6h-1.8v3.5h1.8q1.1 0 1.5-0.4 0.6-0.5 0.6-1.4 0-0.8-0.6-1.3-0.4-0.4-1.5-0.4zm12.2 5.6h-0.9v5h-3.3v-13.2h5q2.7 0 3.8 1 1.3 0.8 1.3 2.7 0 1.3-0.7 2.1-0.6 0.8-1.9 1.3 0.7 0.1 1.2 0.7 0.6 0.5 1.1 1.7l1.9 3.7h-3.6l-1.6-3.3q-0.4-1-0.9-1.3-0.6-0.4-1.4-0.4zm-0.9-2.3h1.4q1 0 1.5-0.4 0.4-0.4 0.4-1.3 0-0.9-0.4-1.3-0.5-0.3-1.5-0.3h-1.4zm16.3-6.1q3.1 0 5 1.8 1.7 1.9 1.7 5 0 3.2-1.7 4.9-1.9 1.9-5 1.9-3.1 0-4.9-1.9-1.8-1.7-1.8-4.9 0-3.1 1.8-5 1.8-1.8 4.9-1.8zm0 2.5q-1.5 0-2.4 1-0.8 1.2-0.8 3.3 0 2 0.8 3.2 0.9 1.1 2.4 1.1 1.5 0 2.4-1.1 0.8-1.2 0.8-3.2 0-2.1-0.8-3.3-0.9-1-2.4-1zm15.2-2.5q3.1 0 4.9 1.8 1.8 1.9 1.8 5 0 3.2-1.8 4.9-1.8 1.9-4.9 1.9-3.1 0-5-1.9-1.7-1.7-1.7-4.9 0-3.1 1.7-5 1.9-1.8 5-1.8zm0 2.5q-1.5 0-2.4 1-0.8 1.2-0.8 3.3 0 2 0.8 3.2 0.9 1.1 2.4 1.1 1.5 0 2.4-1.1 0.8-1.2 0.8-3.2 0-2.1-0.8-3.3-0.9-1-2.4-1zm9.2 10.8v-13.1h9.1v2.7h-5.7v2.4h5.3v2.5h-5.3v5.5zm12.2 0v-13.1h3.3v13.1zm6.7 0v-13.1h3.7l4.7 9v-9h3.2v13.1h-3.8l-4.7-9v9zm26.7-7.2v6.2q-1.3 0.7-2.7 0.9-1.2 0.4-2.7 0.4-3.2 0-5.2-1.9-1.8-1.8-1.8-4.9 0-3.1 1.9-5 1.9-1.8 5.3-1.8 1.3 0 2.4 0.3 1.3 0.3 2.3 0.7v2.7q-1.1-0.6-2.2-1-1-0.2-2.1-0.2-2 0-3.1 1-1.1 1.2-1.1 3.3 0 2 1.1 3.2 1 1.1 2.9 1.1 0.5 0 1-0.1 0.4 0 0.8-0.2v-2.5h-2.1v-2.2z"></path><path id="TYNE TEES DAMP PROOFING" class="s1" d="m83.4-591.4v-5h23.5v5h-8.5v20.5h-6.6v-20.5zm33.1 9.8l-9.7-14.8h7.2l5.8 9.1 5.8-9.1h7.1l-9.6 14.8v10.7h-6.6zm19.1 10.7v-25.4h7.4l9.3 17.5v-17.5h6.2v25.4h-7.4l-9.3-17.5v17.5zm29.3 0v-25.4h17.7v4.9h-11.1v4.8h10.5v4.9h-10.5v5.9h11.6v4.9zm33-20.5v-4.9h23.4v4.9h-8.5v20.5h-6.5v-20.5zm26.9 20.5v-25.4h17.7v4.9h-11.2v4.8h10.6v4.9h-10.6v5.9h11.6v4.9zm23.8 0v-25.4h17.8v4.9h-11.1v4.8h10.5v4.9h-10.5v5.9h11.5v4.9zm41.6-24.6v5.4q-2.1-1-4.1-1.5-2-0.4-3.8-0.4-2.3 0-3.5 0.6-1.1 0.6-1.1 2 0 1 0.8 1.6 0.8 0.6 2.7 1.1l2.8 0.5q4.2 0.8 6.1 2.6 1.7 1.7 1.7 4.9 0 4.3-2.4 6.3-2.5 2.1-7.7 2.1-2.4 0-4.8-0.4-2.4-0.5-4.9-1.4v-5.6q2.5 1.3 4.6 2 2.3 0.6 4.5 0.6 2.1 0 3.2-0.7 1.2-0.7 1.2-2.1 0-1.1-0.7-1.8-0.8-0.6-3.1-1.2l-2.5-0.6q-3.9-0.8-5.7-2.6-1.7-1.7-1.7-4.8 0-3.8 2.4-5.8 2.4-2.1 7-2.1 2.2 0 4.4 0.4 2.2 0.2 4.6 0.9zm19.7 24.6v-25.4h6.9q5.7 0 8.6 0.8 2.8 0.8 4.8 2.8 1.8 1.7 2.8 4 0.8 2.3 0.8 5.1 0 2.8-0.8 5.1-1 2.3-2.8 4.1-2 1.9-4.8 2.7-2.9 0.8-8.6 0.8zm8.8-20.5h-2.3v15.6h2.3q4 0 6.2-2 2.1-2 2.1-5.8 0-3.8-2.1-5.8-2.2-2-6.2-2zm37.2 20.5l-1.6-4.6h-10.3l-1.6 4.6h-6.6l9.5-25.4h7.8l9.4 25.4zm-6.7-19.4l-3.5 10.1h7zm16.6 19.6v-25.6h8.4l5.9 13.7 5.7-13.7h8.4v25.6h-6.2v-18.8l-5.8 13.8h-4.2l-5.9-13.8v18.8zm34.8 0v-25.6h10.9q4.8 0 7.5 2.2 2.6 2.1 2.6 6.1 0 4-2.6 6.2-2.7 2.2-7.5 2.2h-4.4v8.9zm10.3-20.9h-3.7v7.2h3.7q1.9 0 2.9-0.9 1.1-1 1.1-2.7 0-1.7-1.1-2.6-1-1-2.9-1zm27.5 20.9v-25.6h11q4.8 0 7.4 2.2 2.6 2.1 2.6 6.1 0 4-2.6 6.2-2.6 2.2-7.4 2.2h-4.4v8.9zm10.2-20.9h-3.6v7.2h3.6q2 0 3-0.9 1.1-1 1.1-2.7 0-1.7-1.1-2.6-1-1-3-1zm23.8 11.2h-1.8v9.7h-6.6v-25.6h10q5.1 0 7.4 1.8 2.4 1.6 2.4 5.2 0 2.6-1.3 4.2-1.1 1.6-3.6 2.4 1.3 0.4 2.4 1.4 1.1 1.1 2.2 3.3l3.5 7.3h-7l-3.1-6.4q-0.9-1.9-1.8-2.6-1.1-0.7-2.7-0.7zm-1.8-4.6h2.7q2.1 0 3-0.7 0.9-0.8 0.9-2.5 0-1.9-0.9-2.5-0.9-0.9-3-0.9h-2.7zm31.9-11.7q6.2 0 9.7 3.6 3.4 3.4 3.4 9.6 0 6.3-3.4 9.7-3.5 3.6-9.7 3.6-6.1 0-9.5-3.6-3.6-3.4-3.6-9.7 0-6.2 3.6-9.6 3.4-3.6 9.5-3.6zm0 4.7q-3 0-4.6 2.3-1.7 2.2-1.7 6.2 0 4.1 1.7 6.3 1.6 2.3 4.6 2.3 3.1 0 4.7-2.3 1.7-2.2 1.7-6.3 0-4-1.7-6.2-1.6-2.3-4.7-2.3zm29.8-4.7q6.1 0 9.7 3.6 3.4 3.4 3.4 9.6 0 6.3-3.4 9.7-3.6 3.6-9.7 3.6-6.1 0-9.6-3.6-3.5-3.4-3.5-9.7 0-6.2 3.5-9.6 3.5-3.6 9.6-3.6zm0 4.7q-3 0-4.7 2.3-1.6 2.2-1.6 6.2 0 4.1 1.6 6.3 1.7 2.3 4.7 2.3 3 0 4.7-2.3 1.6-2.2 1.6-6.3 0-4-1.6-6.2-1.7-2.3-4.7-2.3zm18.1 21.3v-25.5h17.7v4.9h-11.2v4.9h10.6v4.9h-10.6v10.8zm23.9 0v-25.5h6.6v25.5zm13 0v-25.5h7.3l9.3 17.5v-17.5h6.2v25.5h-7.3l-9.2-17.5v17.5zm52-14.1v12.2q-2.4 1.2-5 1.8-2.7 0.6-5.5 0.6-6.4 0-10-3.6-3.8-3.6-3.8-9.7 0-6.1 3.8-9.6 3.8-3.6 10.3-3.6 2.7 0 5 0.5 2.3 0.4 4.3 1.5v5.1q-2-1.1-4.2-1.7-2.1-0.7-4.3-0.7-3.9 0-6 2.3-2.1 2.2-2.1 6.2 0 4.1 2 6.3 2.1 2.3 5.9 2.3 1 0 1.8-0.2 0.9-0.2 1.6-0.4v-5h-4v-4.3z"></path><g id="&lt;Group&gt;"><g id="&lt;Group&gt;"><path id="&lt;Compound Path&gt;" class="s2" d="m748.7 115.1v-11.5h-4.1v-2.7h11.4v2.7h-4.2v11.5z"></path><path id="&lt;Compound Path&gt;" class="s2" d="m761.8 115.1v-5.8l-5.5-8.4h3.5l3.5 5.7 3.5-5.7h3.4l-5.4 8.4v5.8z"></path><path id="&lt;Compound Path&gt;" class="s2" d="m781.3 115.1l-6.7-9.2v9.2h-3.1v-14.2h3.1l6.5 9v-9h3.2v14.2z"></path><path id="&lt;Compound Path&gt;" class="s2" d="m787 115.1v-14.2h10v2.7h-7v3h6.9v2.6h-6.9v3.2h7v2.7z"></path><path id="&lt;Compound Path&gt;" class="s2" d="m808.2 115.1v-11.5h-4.3v-2.7h11.4v2.7h-4.2v11.5z"></path><path id="&lt;Compound Path&gt;" class="s2" d="m817.2 115.1v-14.2h10v2.7h-7v3h6.8v2.6h-6.8v3.2h7v2.7z"></path><path id="&lt;Compound Path&gt;" class="s2" d="m829.5 115.1v-14.2h10v2.7h-7v3h6.9v2.6h-6.9v3.2h7v2.7z"></path><path id="&lt;Compound Path&gt;" class="s2" d="m840.9 113.1l1.7-2.4c1 1.2 2.6 2 4.5 2 1.6 0 2.4-0.7 2.4-1.5 0-2.6-8.1-0.8-8.1-6.1 0-2.4 2-4.4 5.4-4.4 2.3 0 4.1 0.7 5.5 2l-1.6 2.3c-1.2-1.1-2.8-1.5-4.1-1.5-1.3 0-2.1 0.4-2.1 1.4 0 2.1 8.1 0.6 8.1 5.9 0 2.7-1.8 4.6-5.6 4.6-2.7 0-4.7-0.9-6.1-2.3z"></path><path id="&lt;Compound Path&gt;" fill-rule="evenodd" class="s2" d="m860.1 115.1v-14.2h5.6c4.4 0 7.5 2.9 7.5 7.2 0 4.2-3.1 7-7.5 7zm10-7c0-2.6-1.4-4.5-4.3-4.5h-2.7v8.8h2.6c2.8 0 4.4-1.9 4.4-4.3z"></path><path id="&lt;Compound Path&gt;" fill-rule="evenodd" class="s2" d="m884.4 115.1l-0.8-2.4h-6.1l-0.9 2.4h-3.5l5.5-14.2h3.8l5.4 14.2zm-3.9-11.2l-2.2 6.1h4.4z"></path><path id="&lt;Compound Path&gt;" class="s2" d="m901.5 115.1v-10.2l-4 10.2h-1.3l-4-10.2v10.2h-3v-14.2h4.1l3.5 8.9 3.4-8.9h4.3v14.2z"></path><path id="&lt;Compound Path&gt;" fill-rule="evenodd" class="s2" d="m907.2 115.1v-14.2h6.7c3.1 0 4.7 2.1 4.7 4.6 0 2.5-1.6 4.5-4.7 4.5h-3.6v5.1zm8.3-9.6c0-1.2-0.9-1.9-2-1.9h-3.3v3.8h3.3c1.1 0 2-0.7 2-1.9z"></path><path id="&lt;Compound Path&gt;" fill-rule="evenodd" class="s2" d="m926 115.1v-14.2h6.6c3.1 0 4.8 2.1 4.8 4.6 0 2.5-1.7 4.5-4.8 4.5h-3.5v5.1zm8.3-9.6c0-1.2-1-1.9-2.2-1.9h-3.1v3.8h3.1c1.2 0 2.2-0.7 2.2-1.9z"></path><path id="&lt;Compound Path&gt;" fill-rule="evenodd" class="s2" d="m947.2 115.1l-2.7-5h-2.2v5h-3v-14.2h6.6c3 0 4.8 2 4.8 4.6 0 2.5-1.6 3.8-3.1 4.2l3.2 5.4zm0.2-9.6c0-1.2-0.9-1.9-2-1.9h-3.3v3.8h3.3c1.1 0 2-0.7 2-1.9z"></path><path id="&lt;Compound Path&gt;" fill-rule="evenodd" class="s2" d="m952.3 108.1c0-4.3 3.1-7.4 7.4-7.4 4.2 0 7.3 3.1 7.3 7.4 0 4.2-3.1 7.3-7.3 7.3-4.3 0-7.4-3.1-7.4-7.3zm11.6 0c0-2.7-1.6-4.7-4.2-4.7-2.7 0-4.4 2-4.4 4.7 0 2.6 1.7 4.6 4.4 4.6 2.6 0 4.2-2 4.2-4.6z"></path><path id="&lt;Compound Path&gt;" fill-rule="evenodd" class="s2" d="m968.5 108.1c0-4.3 3.1-7.4 7.4-7.4 4.2 0 7.3 3.1 7.3 7.4 0 4.2-3.1 7.3-7.3 7.3-4.3 0-7.4-3.1-7.4-7.3zm11.7 0c0-2.7-1.7-4.7-4.3-4.7-2.7 0-4.3 2-4.3 4.7 0 2.6 1.6 4.6 4.3 4.6 2.6 0 4.3-2 4.3-4.6z"></path><path id="&lt;Compound Path&gt;" class="s2" d="m985.4 115.1v-14.2h10v2.7h-7v3h6.9v2.6h-6.9v5.9z"></path><path id="&lt;Compound Path&gt;" fill-rule="evenodd" class="s2" d="m1000.6 100.9v14.2h-3.1v-14.2z"></path><path id="&lt;Compound Path&gt;" class="s2" d="m1013.1 115.1l-6.8-9.2v9.2h-3v-14.2h3.1l6.6 9v-9h3v14.2z"></path><path id="&lt;Compound Path&gt;" class="s2" d="m1018.2 108.1c0-4.5 3.3-7.4 7.4-7.4 3 0 4.9 1.5 5.9 3.2l-2.4 1.3c-0.7-0.9-2-1.8-3.5-1.8-2.5 0-4.3 2-4.3 4.7 0 2.6 1.8 4.6 4.3 4.6 1.3 0 2.4-0.6 3-1.1v-1.7h-3.7v-2.6h6.8v5.4c-1.5 1.6-3.4 2.7-6.1 2.7-4.1 0-7.4-2.8-7.4-7.3z"></path></g><g id="&lt;Group&gt;"><g id="&lt;Group&gt;"><g id="&lt;Group&gt;"><path id="&lt;Path&gt;" class="s2" d="m1025.7 92.8h-7.7q-0.4-1-0.9-2c-4.3-8.6-9.6-16.8-15.6-24.4q-2.1-2.5-4.1-5.1c-6.4-7.1-13.3-13.7-20.8-19.5q-2-1.6-4.2-3.1c-6.4-4.7-13.4-8.9-20.7-12.5q-2-1-4.1-1.9-10-4.6-20.7-7.6-2.1-0.6-4.1-1-10.2-2.6-20.8-3.6-2-0.1-4.2-0.2-4.7-0.4-9.6-0.4-5.6 0-11.1 0.4-2 0.2-4.1 0.4c-7 0.7-14 2-20.7 3.7q-2.1 0.6-4.1 1.1c-7.2 2.1-14.2 4.7-20.7 7.8q-2.2 1-4.2 2c-7.3 3.6-14.2 8-20.8 12.7q-2 1.6-4.1 3.2c-7 5.5-13.5 11.9-19.4 18.5q-2.1 2.6-4.2 5.1c-5.9 7.6-11.2 15.8-15.6 24.4q-0.5 1-1 2h-7.6q0.4-1 0.9-2c6.2-12.8 14-24.6 23.3-35.1q2.1-2.3 4.2-4.5c5.9-6.2 12.5-12 19.4-17.1q2.1-1.5 4.1-2.9c6.6-4.5 13.6-8.5 20.8-12q2-1 4.2-1.8 10-4.5 20.7-7.4 2-0.6 4.1-1.1 10.2-2.5 20.7-3.5 2.1-0.2 4.1-0.3 5.5-0.5 11.1-0.5 4.9 0 9.6 0.3 2.2 0.2 4.2 0.4 10.6 0.9 20.8 3.3 2 0.5 4.1 1.1 10.7 2.7 20.7 7.1 2.1 0.8 4.1 1.8c7.3 3.4 14.2 7.3 20.7 11.7q2.1 1.4 4.2 2.8c7.4 5.5 14.3 11.4 20.8 18q2 2.3 4.1 4.6c9.3 10.5 17.1 22.3 23.3 35.1q0.5 1 0.9 2z"></path></g><g id="&lt;Group&gt;"><path id="&lt;Path&gt;" class="s2" d="m1032.3 94.4h-288.3v-3.6h288.3z"></path></g><g id="&lt;Group&gt;"><g id="&lt;Group&gt;"><path id="&lt;Path&gt;" class="s2" d="m779 51.2v41.3h-4.2v-36.8q2.1-2.3 4.2-4.5z"></path></g><g id="&lt;Group&gt;"><path id="&lt;Path&gt;" class="s2" d="m802.5 31.2v61.3h-4.1v-58.4q2.1-1.5 4.1-2.9z"></path></g><g id="&lt;Group&gt;"><path id="&lt;Path&gt;" class="s2" d="m827.5 17.4v75.1h-4.2v-73.3q2-1 4.2-1.8z"></path></g><g id="&lt;Group&gt;"><path id="&lt;Path&gt;" class="s2" d="m852.3 8.9v83.6h-4.1v-82.5q2-0.6 4.1-1.1z"></path></g><g id="&lt;Group&gt;"><path id="&lt;Path&gt;" class="s2" d="m877.1 5.1v87.4h-4.1v-87.1q2.1-0.2 4.1-0.3z"></path></g><g id="&lt;Group&gt;"><path id="&lt;Path&gt;" class="s2" d="m902 5.3v87.2h-4.2v-87.6q2.2 0.2 4.2 0.4z"></path></g><g id="&lt;Group&gt;"><path id="&lt;Path&gt;" class="s2" d="m926.9 9.7v82.8h-4.1v-83.9q2 0.5 4.1 1.1z"></path></g><g id="&lt;Group&gt;"><path id="&lt;Path&gt;" class="s2" d="m951.7 18.6v73.9h-4.1v-75.7q2.1 0.8 4.1 1.8z"></path></g><g id="&lt;Group&gt;"><path id="&lt;Path&gt;" class="s2" d="m976.6 33.1v59.4h-4.2v-62.2q2.1 1.4 4.2 2.8z"></path></g><g id="&lt;Group&gt;"><path id="&lt;Path&gt;" class="s2" d="m1001.5 55.7v36.8h-4.1v-41.4q2 2.3 4.1 4.6z"></path></g></g></g></g></g><g id="&lt;Group&gt;"><g id="&lt;Group&gt;"><path id="&lt;Compound Path&gt;" class="s2" d="m10 115.1v-11.5h-4.1v-2.7h11.3v2.7h-4.1v11.5z"></path><path id="&lt;Compound Path&gt;" class="s2" d="m23.1 115.1v-5.8l-5.5-8.4h3.4l3.6 5.7 3.4-5.7h3.5l-5.4 8.4v5.8z"></path><path id="&lt;Compound Path&gt;" class="s2" d="m42.5 115.1l-6.6-9.2v9.2h-3.1v-14.2h3.1l6.5 9v-9h3.1v14.2z"></path><path id="&lt;Compound Path&gt;" class="s2" d="m48.3 115.1v-14.2h10v2.7h-7v3h6.9v2.6h-6.9v3.2h7v2.7z"></path><path id="&lt;Compound Path&gt;" class="s2" d="m69.4 115.1v-11.5h-4.1v-2.7h11.3v2.7h-4.2v11.5z"></path><path id="&lt;Compound Path&gt;" class="s2" d="m78.5 115.1v-14.2h10v2.7h-7v3h6.8v2.6h-6.8v3.2h7v2.7z"></path><path id="&lt;Compound Path&gt;" class="s2" d="m90.8 115.1v-14.2h10v2.7h-7v3h6.9v2.6h-6.9v3.2h7v2.7z"></path><path id="&lt;Compound Path&gt;" class="s2" d="m102.2 113.1l1.7-2.4c0.9 1.2 2.5 2 4.5 2 1.7 0 2.4-0.7 2.4-1.5 0-2.6-8.2-0.8-8.2-6.1 0-2.4 2.1-4.4 5.4-4.4 2.3 0 4.2 0.7 5.6 2l-1.6 2.3c-1.2-1.1-2.8-1.5-4.2-1.5-1.2 0-2.1 0.4-2.1 1.4 0 2.1 8.2 0.6 8.2 5.9 0 2.7-1.8 4.6-5.6 4.6-2.8 0-4.7-0.9-6.1-2.3z"></path><path id="&lt;Compound Path&gt;" fill-rule="evenodd" class="s2" d="m121.4 115.1v-14.2h5.6c4.4 0 7.5 2.9 7.5 7.2 0 4.2-3.1 7-7.5 7zm10-7c0-2.6-1.5-4.5-4.4-4.5h-2.6v8.8h2.5c2.9 0 4.5-1.9 4.5-4.3z"></path><path id="&lt;Compound Path&gt;" fill-rule="evenodd" class="s2" d="m145.7 115.1l-0.9-2.4h-6.1l-0.9 2.4h-3.4l5.5-14.2h3.8l5.4 14.2zm-3.9-11.2l-2.2 6.1h4.4z"></path><path id="&lt;Compound Path&gt;" class="s2" d="m162.8 115.1v-10.2l-4.1 10.2h-1.2l-4.1-10.2v10.2h-2.9v-14.2h4.1l3.4 8.9 3.5-8.9h4.2v14.2z"></path><path id="&lt;Compound Path&gt;" fill-rule="evenodd" class="s2" d="m168.6 115.1v-14.2h6.6c3.1 0 4.8 2.1 4.8 4.6 0 2.5-1.7 4.5-4.8 4.5h-3.6v5.1zm8.3-9.6c0-1.2-0.9-1.9-2.1-1.9h-3.2v3.8h3.2c1.2 0 2.1-0.7 2.1-1.9z"></path><path id="&lt;Compound Path&gt;" fill-rule="evenodd" class="s2" d="m187.2 115.1v-14.2h6.7c3.1 0 4.7 2.1 4.7 4.6 0 2.5-1.6 4.5-4.7 4.5h-3.6v5.1zm8.3-9.6c0-1.2-0.9-1.9-2.2-1.9h-3.1v3.8h3.1c1.3 0 2.2-0.7 2.2-1.9z"></path><path id="&lt;Compound Path&gt;" fill-rule="evenodd" class="s2" d="m208.5 115.1l-2.8-5h-2.1v5h-3v-14.2h6.5c3 0 4.9 2 4.9 4.6 0 2.5-1.7 3.8-3.1 4.2l3.2 5.4zm0.2-9.6c0-1.2-0.9-1.9-2.1-1.9h-3.2v3.8h3.2c1.2 0 2.1-0.7 2.1-1.9z"></path><path id="&lt;Compound Path&gt;" fill-rule="evenodd" class="s2" d="m213.6 108.1c0-4.3 3.1-7.4 7.3-7.4 4.3 0 7.4 3.1 7.4 7.4 0 4.2-3.1 7.3-7.4 7.3-4.2 0-7.3-3.1-7.3-7.3zm11.6 0c0-2.7-1.6-4.7-4.3-4.7-2.6 0-4.2 2-4.2 4.7 0 2.6 1.6 4.6 4.2 4.6 2.7 0 4.3-2 4.3-4.6z"></path><path id="&lt;Compound Path&gt;" fill-rule="evenodd" class="s2" d="m229.8 108.1c0-4.3 3.1-7.4 7.3-7.4 4.3 0 7.5 3.1 7.5 7.4 0 4.2-3.2 7.3-7.5 7.3-4.2 0-7.3-3.1-7.3-7.3zm11.7 0c0-2.7-1.7-4.7-4.4-4.7-2.6 0-4.2 2-4.2 4.7 0 2.6 1.6 4.6 4.2 4.6 2.7 0 4.4-2 4.4-4.6z"></path><path id="&lt;Compound Path&gt;" class="s2" d="m246.7 115.1v-14.2h10v2.7h-7v3h6.9v2.6h-6.9v5.9z"></path><path id="&lt;Compound Path&gt;" fill-rule="evenodd" class="s2" d="m261.8 100.9v14.2h-3.1v-14.2z"></path><path id="&lt;Compound Path&gt;" class="s2" d="m274.4 115.1l-6.8-9.2v9.2h-3v-14.2h3.1l6.6 9v-9h2.9v14.2z"></path><path id="&lt;Compound Path&gt;" class="s2" d="m279.4 108.1c0-4.5 3.4-7.4 7.5-7.4 3 0 4.8 1.5 5.9 3.2l-2.5 1.3c-0.6-0.9-1.9-1.8-3.4-1.8-2.5 0-4.4 2-4.4 4.7 0 2.6 1.9 4.6 4.4 4.6 1.3 0 2.4-0.6 3-1.1v-1.7h-3.7v-2.6h6.8v5.4c-1.5 1.6-3.5 2.7-6.1 2.7-4.1 0-7.5-2.8-7.5-7.3z"></path></g><g id="&lt;Group&gt;"><g id="&lt;Group&gt;"><g id="&lt;Group&gt;"><path id="&lt;Path&gt;" class="s2" d="m287 92.8h-7.6q-0.5-1-1-2c-4.4-8.6-9.7-16.8-15.6-24.4q-2.1-2.5-4.2-5.1c-6.3-7.1-13.2-13.7-20.8-19.5q-1.9-1.6-4.1-3.1c-6.5-4.7-13.5-8.9-20.7-12.5q-2.1-1-4.1-1.9-10-4.6-20.7-7.6-2.1-0.6-4.2-1-10.1-2.6-20.7-3.6-2-0.1-4.2-0.2-4.7-0.4-9.7-0.4-5.5 0-11 0.4-2.1 0.2-4.1 0.4c-7.1 0.7-14.1 2-20.7 3.7q-2.1 0.6-4.2 1.1c-7.1 2.1-14.1 4.7-20.7 7.8q-2.1 1-4.1 2c-7.4 3.6-14.3 8-20.8 12.7q-2.1 1.6-4.1 3.2c-7.1 5.5-13.5 11.9-19.5 18.5q-2 2.6-4.1 5.1c-6 7.6-11.3 15.8-15.6 24.4q-0.5 1-1.1 2h-7.6q0.5-1 1-2c6.2-12.8 14-24.6 23.3-35.1q2.1-2.3 4.1-4.5c6-6.2 12.6-12 19.5-17.1q2-1.5 4.1-2.9c6.5-4.5 13.6-8.5 20.8-12q2-1 4.1-1.8 10-4.5 20.7-7.4 2.1-0.6 4.2-1.1 10.1-2.5 20.7-3.5 2-0.2 4.1-0.3 5.5-0.5 11-0.5 5 0 9.7 0.3 2.2 0.2 4.2 0.4 10.6 0.9 20.7 3.3 2.1 0.5 4.2 1.1 10.7 2.7 20.7 7.1 2 0.8 4.1 1.8c7.2 3.4 14.1 7.3 20.7 11.7q2.2 1.4 4.1 2.8c7.5 5.5 14.4 11.4 20.8 18q2.1 2.3 4.2 4.6c9.3 10.5 17.1 22.3 23.3 35.1q0.5 1 0.9 2z"></path></g><g id="&lt;Group&gt;"><path id="&lt;Path&gt;" fill-rule="evenodd" class="s2" d="m293.6 90.8v3.6h-288.3v-3.6z"></path></g><g id="&lt;Group&gt;"><g id="&lt;Group&gt;"><path id="&lt;Path&gt;" class="s2" d="m40.2 51.2v41.3h-4.1v-36.8q2.1-2.3 4.1-4.5z"></path></g><g id="&lt;Group&gt;"><path id="&lt;Path&gt;" class="s2" d="m63.8 31.2v61.3h-4.1v-58.4q2-1.5 4.1-2.9z"></path></g><g id="&lt;Group&gt;"><path id="&lt;Path&gt;" class="s2" d="m88.7 17.4v75.1h-4.1v-73.3q2-1 4.1-1.8z"></path></g><g id="&lt;Group&gt;"><path id="&lt;Path&gt;" class="s2" d="m113.6 8.9v83.6h-4.2v-82.5q2.1-0.6 4.2-1.1z"></path></g><g id="&lt;Group&gt;"><path id="&lt;Path&gt;" class="s2" d="m138.4 5.1v87.4h-4.1v-87.1q2-0.2 4.1-0.3z"></path></g><g id="&lt;Group&gt;"><path id="&lt;Path&gt;" class="s2" d="m163.3 5.3v87.2h-4.2v-87.6q2.2 0.2 4.2 0.4z"></path></g><g id="&lt;Group&gt;"><path id="&lt;Path&gt;" class="s2" d="m188.2 9.7v82.8h-4.2v-83.9q2.1 0.5 4.2 1.1z"></path></g><g id="&lt;Group&gt;"><path id="&lt;Path&gt;" class="s2" d="m213 18.6v73.9h-4.1v-75.7q2 0.8 4.1 1.8z"></path></g><g id="&lt;Group&gt;"><path id="&lt;Path&gt;" class="s2" d="m237.8 33.1v59.4h-4.1v-62.2q2.2 1.4 4.1 2.8z"></path></g><g id="&lt;Group&gt;"><path id="&lt;Path&gt;" class="s2" d="m262.8 55.7v36.8h-4.2v-41.4q2.1 2.3 4.2 4.6z"></path></g></g></g></g></g><g id="&lt;Group&gt;"><g id="&lt;Group&gt;"><g id="&lt;Group&gt;"><path id="&lt;Path&gt;" class="s2" d="m715.7-487h-7.7q-0.4-1-0.9-1.9c-4.5-8.8-9.6-16.9-15.7-24.5q-2-2.6-4.2-5c-6.2-7.2-13.1-13.8-20.6-19.6q-2.1-1.6-4.2-3.1-9.8-7-20.7-12.4-2-1-4.1-1.9-10-4.6-20.7-7.6-2.1-0.6-4.1-1.1-10.2-2.5-20.8-3.5-2.1-0.3-4.2-0.4-4.8-0.3-9.6-0.3-5.7 0-11.1 0.4-2 0.1-4.1 0.4c-7 0.8-14 1.9-20.7 3.7q-2.1 0.5-4.1 1.1c-7.2 2.1-14.2 4.7-20.8 7.8q-2.1 1-4.2 2-10.8 5.5-20.7 12.8-2 1.5-4.1 3.1c-7 5.6-13.6 11.8-19.4 18.6q-2.1 2.4-4.2 5c-5.9 7.6-11.2 15.7-15.6 24.5q-0.5 0.9-1 1.9h-7.6q0.4-1 0.9-1.9c6.1-12.9 14-24.7 23.3-35.2q2.1-2.3 4.2-4.5c5.9-6.2 12.5-11.9 19.4-17.1q2.1-1.5 4.1-3c6.6-4.4 13.5-8.5 20.7-11.8q2.1-1 4.2-2 10.1-4.3 20.8-7.3 2-0.6 4.1-1.1c6.7-1.6 13.7-2.8 20.7-3.5q2.1-0.2 4.1-0.4 5.4-0.3 11.1-0.3 4.8 0 9.6 0.3 2.1 0.1 4.2 0.2 10.6 1.1 20.8 3.4 2 0.6 4.1 1 10.7 2.9 20.7 7.2 2.1 0.9 4.1 1.8 10.9 5 20.7 11.7 2.1 1.4 4.2 2.9c7.4 5.3 14.3 11.4 20.6 18q2.2 2.2 4.2 4.5c9.3 10.5 17.2 22.3 23.3 35.2q0.6 0.9 1 1.9z"></path></g><g id="&lt;Group&gt;"><path id="&lt;Path&gt;" fill-rule="evenodd" class="s2" d="m722.3-488.9v3.5h-288.3v-3.5z"></path></g><g id="&lt;Group&gt;"><g id="&lt;Group&gt;"><path id="&lt;Path&gt;" class="s2" d="m469-528.6v41.4h-4.2v-36.9q2.1-2.3 4.2-4.5z"></path></g><g id="&lt;Group&gt;"><path id="&lt;Path&gt;" class="s2" d="m492.5-548.7v61.5h-4.1v-58.5q2.1-1.5 4.1-3z"></path></g><g id="&lt;Group&gt;"><path id="&lt;Path&gt;" class="s2" d="m517.4-562.5v75.3h-4.2v-73.3q2.1-1 4.2-2z"></path></g><g id="&lt;Group&gt;"><path id="&lt;Path&gt;" class="s2" d="m542.3-570.9v83.7h-4.1v-82.6q2-0.6 4.1-1.1z"></path></g><g id="&lt;Group&gt;"><path id="&lt;Path&gt;" class="s2" d="m567.1-574.8v87.6h-4.1v-87.2q2.1-0.2 4.1-0.4z"></path></g><g id="&lt;Group&gt;"><path id="&lt;Path&gt;" class="s2" d="m592-574.6v87.4h-4.2v-87.6q2.1 0.1 4.2 0.2z"></path></g><g id="&lt;Group&gt;"><path id="&lt;Path&gt;" class="s2" d="m616.9-570.2v83h-4.1v-84q2 0.6 4.1 1z"></path></g><g id="&lt;Group&gt;"><path id="&lt;Path&gt;" class="s2" d="m641.7-561.2v74h-4.1v-75.8q2.1 0.9 4.1 1.8z"></path></g><g id="&lt;Group&gt;"><path id="&lt;Path&gt;" class="s2" d="m666.6-546.6v59.4h-4.2v-62.3q2.1 1.4 4.2 2.9z"></path></g><g id="&lt;Group&gt;"><path id="&lt;Path&gt;" class="s2" d="m691.4-524.1v36.9h-4.2v-41.4q2.2 2.2 4.2 4.5z"></path></g></g></g></g><g id="&lt;Group&gt;"><path id="&lt;Compound Path&gt;" fill-rule="evenodd" class="s1" d="m662.6-736.8c-70.4 0-127.3-57-127.3-127.6 0-70.5 56.9-127.5 127.3-127.5 70.5 0 127.4 57 127.4 127.5 0 70.6-56.9 127.6-127.4 127.6zm-121.6-127.6c0 67.1 54.6 121.8 121.6 121.8 67.1 0 121.7-54.7 121.7-121.8 0-67.2-54.6-121.7-121.7-121.7-67 0-121.6 54.5-121.6 121.7z"></path></g><g id="&lt;Group&gt;"><path id="&lt;Path&gt;" fill-rule="evenodd" class="s1" d="m783.2-919.5v3h-242.5v-3z"></path></g><g id="&lt;Group&gt;"><path id="&lt;Path&gt;" fill-rule="evenodd" class="s1" d="m569.7-1013.9v95.9h-3.6v-95.9z"></path></g><g id="&lt;Group&gt;"><path id="&lt;Path&gt;" fill-rule="evenodd" class="s1" d="m589.4-1013.9v95.9h-3.4v-95.9z"></path></g><g id="&lt;Group&gt;"><path id="&lt;Path&gt;" fill-rule="evenodd" class="s1" d="m610.3-1013.9v95.9h-3.4v-95.9z"></path></g><g id="&lt;Group&gt;"><path id="&lt;Path&gt;" fill-rule="evenodd" class="s1" d="m631.3-1013.9v95.9h-3.5v-95.9z"></path></g><g id="&lt;Group&gt;"><path id="&lt;Path&gt;" fill-rule="evenodd" class="s1" d="m652.2-1013.9v95.9h-3.6v-95.9z"></path></g><g id="&lt;Group&gt;"><path id="&lt;Path&gt;" fill-rule="evenodd" class="s1" d="m673.1-1013.9v95.9h-3.6v-95.9z"></path></g><g id="&lt;Group&gt;"><path id="&lt;Path&gt;" fill-rule="evenodd" class="s1" d="m694-1013.9v95.9h-3.5v-95.9z"></path></g><g id="&lt;Group&gt;"><path id="&lt;Path&gt;" fill-rule="evenodd" class="s1" d="m714.8-1013.9v95.9h-3.4v-95.9z"></path></g><g id="&lt;Group&gt;"><path id="&lt;Path&gt;" fill-rule="evenodd" class="s1" d="m735.7-1013.9v95.9h-3.4v-95.9z"></path></g><g id="&lt;Group&gt;"><path id="&lt;Path&gt;" fill-rule="evenodd" class="s1" d="m756.7-1013.9v95.9h-3.5v-95.9z"></path></g><g id="&lt;Group&gt;"><path id="&lt;Path&gt;" fill-rule="evenodd" class="s2" d="m1060.1-596.9v3.6h-288.3v-3.6z"></path></g><path id="&lt;Path&gt;" fill-rule="evenodd" class="s0" d="m668.3-526v20.2h-182.1v-20.2z"></path><g id="&lt;Group&gt;"><g id="&lt;Group&gt;"><path id="&lt;Compound Path&gt;" class="s2" d="m495.7-521h-2.4v12.5h-2.4v-12.5h-2.5v-2.3h7.3z"></path></g><g id="&lt;Group&gt;"><path id="&lt;Compound Path&gt;" class="s2" d="m501.7-513.7v5.2h-2.4v-5.2l-3-9.6h2.6l1.7 5.3 1.6-5.3h2.6z"></path></g><g id="&lt;Group&gt;"><path id="&lt;Compound Path&gt;" class="s2" d="m513.2-508.5h-1.4l-3.6-7.5v7.5h-2.5v-14.8h1.4l3.7 7.4v-7.4h2.4z"></path></g><g id="&lt;Group&gt;"><path id="&lt;Compound Path&gt;" class="s2" d="m517.4-521v3.8h2.7v2.3h-2.7v4.1h4v2.3h-6.5v-14.8h6.5v2.3z"></path></g><g id="&lt;Group&gt;"><path id="&lt;Compound Path&gt;" class="s2" d="m533-521h-2.4v12.5h-2.4v-12.5h-2.6v-2.3h7.4z"></path></g><g id="&lt;Group&gt;"><path id="&lt;Compound Path&gt;" class="s2" d="m536.6-521v3.8h2.7v2.3h-2.7v4.1h4v2.3h-6.5v-14.8h6.5v2.3z"></path></g><g id="&lt;Group&gt;"><path id="&lt;Compound Path&gt;" class="s2" d="m544.5-521v3.8h2.7v2.3h-2.7v4.1h4v2.3h-6.4v-14.8h6.4v2.3z"></path></g><g id="&lt;Group&gt;"><path id="&lt;Compound Path&gt;" class="s2" d="m553.3-508.3q-1.6 0-2.6-0.9-1-1-1-2.7v-2h2.4v2q0 0.8 0.3 1 0.2 0.2 0.9 0.2 0.6 0 1-0.2 0.2-0.2 0.2-1v-1q0-1-0.8-1.7-0.1-0.1-0.9-0.6-1.1-0.4-1.5-0.9-0.8-0.7-1.3-1.5-0.3-0.9-0.3-1.9v-0.4q0-1.7 1-2.7 1-1 2.6-1 1.5 0 2.6 1 1.1 1 1.1 2.7v1.3h-2.5v-1.3q0-0.8-0.2-1-0.4-0.2-1-0.2-0.7 0-0.9 0.2-0.3 0.2-0.3 1v0.4q0 1 0.8 1.7 0.2 0.1 0.8 0.5 1.1 0.6 1.6 1 1.7 1.4 1.7 3.4v1q0 1.7-1.1 2.7-1.1 0.9-2.6 0.9z"></path></g><g id="&lt;Group&gt;"><path id="&lt;Compound Path&gt;" fill-rule="evenodd" class="s2" d="m565.5-508.5h-3.7v-14.8h3.7q1.5 0 2.5 0.9 1.2 0.9 1.2 2.7v7.6q0 1-0.3 1.7-0.3 0.6-0.9 1.1-0.9 0.8-2.5 0.8zm-1.2-2.3h1.2q0.7 0 0.9-0.2 0.4-0.2 0.4-1.1v-7.6q0-0.8-0.4-1.1-0.3-0.2-0.9-0.2h-1.2z"></path></g><g id="&lt;Group&gt;"><path id="&lt;Compound Path&gt;" fill-rule="evenodd" class="s2" d="m575.7-510.8h-2.7l-0.5 2.3h-2.5l3.1-14.8h2.5l3.1 14.8h-2.5zm-0.5-2.3l-0.9-5.4-1 5.4z"></path></g><g id="&lt;Group&gt;"><path id="&lt;Compound Path&gt;" class="s2" d="m590.1-523.3v14.8h-2.4v-7.4l-2 5.1h-1.4l-2-5.1v7.4h-2.4v-14.8h1.4l3.6 8.3 3.8-8.3z"></path></g><g id="&lt;Group&gt;"><path id="&lt;Compound Path&gt;" fill-rule="evenodd" class="s2" d="m594.3-508.5h-2.5v-14.8h3.7q1.6 0 2.7 0.9 1 0.9 1 2.7v1.7q0 1.7-1 2.7-1.1 0.8-2.7 0.8h-1.2zm0-8.3h1.2q0.7 0 0.9-0.2 0.4-0.2 0.4-1v-1.6q0-0.8-0.4-1.1-0.2-0.3-0.9-0.3h-1.2z"></path></g><g id="&lt;Group&gt;"><path id="&lt;Compound Path&gt;" fill-rule="evenodd" class="s2" d="m606.4-508.5h-2.4v-14.8h3.7q1.5 0 2.5 0.9 1.2 0.9 1.2 2.7v1.7q0 1.7-1.2 2.7-1 0.8-2.5 0.8h-1.3zm0-8.3h1.3q0.6 0 0.8-0.2 0.4-0.2 0.4-1v-1.6q0-0.8-0.4-1.1-0.2-0.3-0.8-0.3h-1.3z"></path></g><g id="&lt;Group&gt;"><path id="&lt;Compound Path&gt;" fill-rule="evenodd" class="s2" d="m619.9-508.5h-2.4l-1.3-6h-1.1v6h-2.5v-14.8h3.7q1.6 0 2.6 0.9 1.1 0.9 1.1 2.7v1.5q0 1.9-1.1 2.9-0.2 0.1-0.4 0.3zm-2.3-11.3q0-0.7-0.3-1.1-0.4-0.2-1-0.2h-1.2v4.3h1.2q0.6 0 1-0.3 0.3-0.3 0.3-1.1z"></path></g><g id="&lt;Group&gt;"><path id="&lt;Compound Path&gt;" fill-rule="evenodd" class="s2" d="m624.9-508.3q-1.6 0-2.6-0.9-1-1-1-2.7v-8q0-1.7 1-2.7 1-1 2.6-1 1.7 0 2.6 1 1.1 1 1.1 2.7v8q0 1.7-1.1 2.7-0.9 0.9-2.6 0.9zm0-12.8q-0.6 0-0.9 0.2-0.3 0.2-0.3 1v8q0 0.8 0.3 1 0.3 0.2 0.9 0.2 0.6 0 1-0.2 0.3-0.2 0.3-1v-8q0-0.8-0.3-1-0.4-0.2-1-0.2z"></path></g><g id="&lt;Group&gt;"><path id="&lt;Compound Path&gt;" fill-rule="evenodd" class="s2" d="m633.7-508.3q-1.6 0-2.6-0.9-1.1-1-1.1-2.7v-8q0-1.7 1.1-2.7 1-1 2.6-1 1.6 0 2.5 1 1.2 1 1.2 2.7v8q0 1.7-1.2 2.7-0.9 0.9-2.5 0.9zm0-12.8q-0.6 0-0.9 0.2-0.4 0.2-0.4 1v8q0 0.8 0.4 1 0.3 0.2 0.9 0.2 0.7 0 0.9-0.2 0.3-0.2 0.3-1v-8q0-0.8-0.3-1-0.2-0.2-0.9-0.2z"></path></g><g id="&lt;Group&gt;"><path id="&lt;Compound Path&gt;" class="s2" d="m641.4-521v3.8h2.7v2.3h-2.7v6.4h-2.4v-14.8h6.4v2.3z"></path></g><g id="&lt;Group&gt;"><path id="&lt;Compound Path&gt;" fill-rule="evenodd" class="s2" d="m649-523.3v14.8h-2.4v-14.8z"></path></g><g id="&lt;Group&gt;"><path id="&lt;Compound Path&gt;" class="s2" d="m658.3-508.5h-1.5l-3.7-7.5v7.5h-2.4v-14.8h1.4l3.6 7.4v-7.4h2.6z"></path></g><g id="&lt;Group&gt;"><path id="&lt;Compound Path&gt;" class="s2" d="m663.4-508.3q-1.6 0-2.6-0.9-1-1-1-2.7v-8q0-1.7 1-2.7 1-1 2.6-1 1.5 0 2.6 1 1 1 1 2.7v1.4h-2.4v-1.4q0-0.8-0.2-1-0.4-0.2-1-0.2-0.6 0-0.9 0.2-0.3 0.2-0.3 1v8q0 0.8 0.3 1 0.3 0.2 0.9 0.2 0.6 0 1-0.2 0.2-0.2 0.2-1v-2.8h-1.2v-2.4h3.6v5.2q0 1.7-1 2.7-1.1 0.9-2.6 0.9z"></path></g></g><g id="&lt;Group&gt;"><g id="&lt;Group&gt;"><g id="&lt;Group&gt;"><g id="&lt;Group&gt;"><path id="&lt;Path&gt;" class="s2" d="m1025.7 640.6h-7.7q-0.4-1-0.9-1.9c-4.3-8.7-9.6-17-15.6-24.4q-2.1-2.6-4.1-5.1c-6.4-7.1-13.3-13.7-20.8-19.6q-2-1.6-4.2-3.1c-6.4-4.7-13.4-8.8-20.7-12.4q-2-1-4.1-2-10-4.6-20.7-7.6-2.1-0.5-4.1-1-10.2-2.5-20.8-3.6-2-0.1-4.2-0.3-4.8-0.2-9.6-0.2-5.6 0-11.1 0.3-2 0.1-4.1 0.3c-7 0.9-14 2.1-20.7 3.8q-2.1 0.6-4.1 1.2c-7.2 2.1-14.2 4.6-20.7 7.7q-2.2 1-4.2 2c-7.3 3.6-14.2 8-20.8 12.7q-2 1.7-4.1 3.3c-7 5.5-13.5 11.7-19.4 18.5q-2.1 2.5-4.2 5.1c-5.9 7.4-11.2 15.7-15.6 24.4q-0.5 0.9-1 1.9h-7.6q0.4-1 0.9-1.9c6.2-12.8 14-24.7 23.3-35.1q2.1-2.3 4.2-4.6c5.9-6.1 12.5-11.9 19.4-17.1q2.1-1.5 4.1-2.9c6.6-4.4 13.6-8.5 20.8-11.9q2-1.1 4.2-2 10-4.4 20.7-7.2 2-0.6 4.1-1.2 10.2-2.4 20.7-3.4 2.1-0.3 4.1-0.4 5.5-0.4 11.1-0.4 4.8 0 9.6 0.3 2.2 0.1 4.2 0.3 10.6 1 20.8 3.4 2 0.4 4.1 1c7.1 1.9 14 4.3 20.7 7q2.1 1 4.1 2c7.3 3.3 14.2 7.2 20.7 11.6q2.1 1.4 4.2 2.9c7.4 5.4 14.3 11.4 20.8 18q2 2.3 4.1 4.4c9.3 10.6 17.1 22.5 23.3 35.3q0.5 0.9 0.9 1.9z"></path></g><g id="&lt;Group&gt;"><path id="&lt;Path&gt;" fill-rule="evenodd" class="s2" d="m1032.3 638.7v3.5h-288.3v-3.5z"></path></g><g id="&lt;Group&gt;"><g id="&lt;Group&gt;"><path id="&lt;Path&gt;" class="s2" d="m779 599v41.4h-4.2v-36.8q2.1-2.3 4.2-4.6z"></path></g><g id="&lt;Group&gt;"><path id="&lt;Path&gt;" class="s2" d="m802.5 579v22.6h-4.1v-19.7q2.1-1.5 4.1-2.9z"></path></g><g id="&lt;Group&gt;"><path id="&lt;Path&gt;" fill-rule="evenodd" class="s2" d="m802.5 621.7v18.7h-4.1v-18.7z"></path></g><g id="&lt;Group&gt;"><path id="&lt;Path&gt;" class="s2" d="m827.5 565.1v36.5h-4.2v-34.5q2-1.1 4.2-2z"></path></g><g id="&lt;Group&gt;"><path id="&lt;Path&gt;" fill-rule="evenodd" class="s2" d="m827.5 621.7v18.7h-4.2v-18.7z"></path></g><g id="&lt;Group&gt;"><path id="&lt;Path&gt;" class="s2" d="m852.3 556.7v44.9h-4.1v-43.7q2-0.6 4.1-1.2z"></path></g><g id="&lt;Group&gt;"><path id="&lt;Path&gt;" fill-rule="evenodd" class="s2" d="m852.3 621.7v18.7h-4.1v-18.7z"></path></g><g id="&lt;Group&gt;"><path id="&lt;Path&gt;" class="s2" d="m877.1 552.9v48.7h-4.1v-48.3q2.1-0.3 4.1-0.4z"></path></g><g id="&lt;Group&gt;"><path id="&lt;Path&gt;" fill-rule="evenodd" class="s2" d="m877.1 621.7v18.7h-4.1v-18.7z"></path></g><g id="&lt;Group&gt;"><path id="&lt;Path&gt;" class="s2" d="m902 553.1v48.5h-4.2v-48.8q2.2 0.1 4.2 0.3z"></path></g><g id="&lt;Group&gt;"><path id="&lt;Path&gt;" fill-rule="evenodd" class="s2" d="m902 621.7v18.7h-4.2v-18.7z"></path></g><g id="&lt;Group&gt;"><path id="&lt;Path&gt;" class="s2" d="m926.9 557.5v44.1h-4.1v-45.1q2 0.4 4.1 1z"></path></g><g id="&lt;Group&gt;"><path id="&lt;Path&gt;" fill-rule="evenodd" class="s2" d="m926.9 621.7v18.7h-4.1v-18.7z"></path></g><g id="&lt;Group&gt;"><path id="&lt;Path&gt;" class="s2" d="m951.7 566.5v35.1h-4.1v-37.1q2.1 1 4.1 2z"></path></g><g id="&lt;Group&gt;"><path id="&lt;Path&gt;" fill-rule="evenodd" class="s2" d="m951.7 621.7v18.7h-4.1v-18.7z"></path></g><g id="&lt;Group&gt;"><path id="&lt;Path&gt;" class="s2" d="m976.6 581v20.6h-4.2v-23.5q2.1 1.4 4.2 2.9z"></path></g><g id="&lt;Group&gt;"><path id="&lt;Path&gt;" fill-rule="evenodd" class="s2" d="m976.6 621.7v18.7h-4.2v-18.7z"></path></g><g id="&lt;Group&gt;"><path id="&lt;Path&gt;" class="s2" d="m1001.5 603.4v37h-4.1v-41.4q2 2.3 4.1 4.4z"></path></g></g></g></g><g id="&lt;Group&gt;"><g id="&lt;Group&gt;"><path id="&lt;Compound Path&gt;" class="s2" d="m805.9 606.5h-2.6v12.7h-2.4v-12.7h-2.5v-2.3h7.5z"></path></g><g id="&lt;Group&gt;"><path id="&lt;Compound Path&gt;" class="s2" d="m811.8 613.9v5.3h-2.5v-5.3l-3-9.7h2.7l1.6 5.5 1.7-5.5h2.5z"></path></g><g id="&lt;Group&gt;"><path id="&lt;Compound Path&gt;" class="s2" d="m823.3 619.2h-1.5l-3.6-7.6v7.6h-2.5v-15h1.4l3.7 7.6v-7.6h2.5z"></path></g><g id="&lt;Group&gt;"><path id="&lt;Compound Path&gt;" class="s2" d="m827.4 606.5v3.8h2.7v2.3h-2.7v4.2h4v2.4h-6.5v-15h6.5v2.3z"></path></g><g id="&lt;Group&gt;"><path id="&lt;Compound Path&gt;" class="s2" d="m843.1 606.5h-2.5v12.7h-2.4v-12.7h-2.6v-2.3h7.5z"></path></g><g id="&lt;Group&gt;"><path id="&lt;Compound Path&gt;" class="s2" d="m846.6 606.5v3.8h2.7v2.3h-2.7v4.2h4v2.4h-6.5v-15h6.5v2.3z"></path></g><g id="&lt;Group&gt;"><path id="&lt;Compound Path&gt;" class="s2" d="m854.5 606.5v3.8h2.7v2.3h-2.7v4.2h4v2.4h-6.4v-15h6.4v2.3z"></path></g><g id="&lt;Group&gt;"><path id="&lt;Compound Path&gt;" class="s2" d="m863.3 619.3q-1.6 0-2.6-0.9-1-0.9-1-2.8v-1.9h2.4v1.9q0 0.8 0.3 1.1 0.2 0.3 0.9 0.3 0.6 0 1-0.3 0.3-0.3 0.3-1.1v-0.9q0-0.9-0.9-1.7-0.1-0.1-0.9-0.6-1.1-0.4-1.5-0.9-0.8-0.7-1.3-1.5-0.3-0.9-0.3-1.8v-0.5q0-1.7 1-2.8 1-0.8 2.6-0.8 1.6 0 2.6 0.8 1.1 1.1 1.1 2.8v1.4h-2.4v-1.4q0-0.7-0.3-1-0.4-0.3-1-0.3-0.7 0-0.9 0.3-0.3 0.3-0.3 1v0.5q0 0.9 0.8 1.6 0.2 0.2 0.9 0.5 1.1 0.6 1.6 1 1.6 1.3 1.6 3.4v0.9q0 1.9-1.1 2.8-1 0.9-2.6 0.9z"></path></g><g id="&lt;Group&gt;"><path id="&lt;Compound Path&gt;" fill-rule="evenodd" class="s2" d="m875.5 619.2h-3.7v-15h3.7q1.6 0 2.5 1 1.2 0.9 1.2 2.7v7.6q0 0.9-0.2 1.6-0.4 0.7-1 1.2-0.9 0.9-2.5 0.9zm-1.2-2.4h1.2q0.7 0 0.9-0.2 0.4-0.3 0.4-1.1v-7.6q0-0.8-0.4-1-0.3-0.4-0.9-0.4h-1.2z"></path></g><g id="&lt;Group&gt;"><path id="&lt;Compound Path&gt;" fill-rule="evenodd" class="s2" d="m885.7 616.8h-2.7l-0.5 2.4h-2.4l3.1-15h2.4l3.1 15h-2.5zm-0.5-2.4l-0.9-5.3-0.9 5.3z"></path></g><g id="&lt;Group&gt;"><path id="&lt;Compound Path&gt;" class="s2" d="m900.1 604.2v15h-2.4v-7.5l-2 5.1h-1.4l-2-5.1v7.5h-2.4v-15h1.4l3.8 8.3 3.6-8.3z"></path></g><g id="&lt;Group&gt;"><path id="&lt;Compound Path&gt;" fill-rule="evenodd" class="s2" d="m904.4 619.2h-2.6v-15h3.7q1.6 0 2.7 1 1 0.9 1 2.7v1.6q0 1.9-1 2.8-1.1 0.9-2.7 0.9h-1.1zm0-8.3h1.1q0.7 0 0.9-0.3 0.4-0.2 0.4-1v-1.7q0-0.6-0.4-1-0.2-0.2-0.9-0.2h-1.1z"></path></g><g id="&lt;Group&gt;"><path id="&lt;Compound Path&gt;" fill-rule="evenodd" class="s2" d="m916.4 619.2h-2.4v-15h3.7q1.5 0 2.5 1 1.2 0.9 1.2 2.7v1.6q0 1.9-1.2 2.8-0.9 0.9-2.5 0.9h-1.3zm0-8.3h1.3q0.6 0 0.9-0.3 0.4-0.2 0.4-1v-1.7q0-0.6-0.4-1-0.3-0.2-0.9-0.2h-1.3z"></path></g><g id="&lt;Group&gt;"><path id="&lt;Compound Path&gt;" fill-rule="evenodd" class="s2" d="m930 619.2h-2.5l-1.3-6h-1.1v6h-2.5v-15h3.7q1.6 0 2.7 1 1 0.9 1 2.7v1.6q0 1.9-1 2.8-0.3 0.1-0.4 0.2zm-2.4-11.1q0-0.8-0.3-1.1-0.3-0.3-1-0.3h-1.2v4.2h1.2q0.7 0 1-0.2 0.3-0.3 0.3-1z"></path></g><g id="&lt;Group&gt;"><path id="&lt;Compound Path&gt;" fill-rule="evenodd" class="s2" d="m934.9 619.3q-1.6 0-2.5-0.9-1.1-0.9-1.1-2.8v-7.9q0-1.7 1.1-2.8 0.9-0.8 2.5-0.8 1.7 0 2.6 0.8 1.1 1.1 1.1 2.8v7.9q0 1.9-1.1 2.8-0.9 0.9-2.6 0.9zm0-12.9q-0.5 0-0.9 0.3-0.3 0.3-0.3 1v7.9q0 0.8 0.3 1.1 0.4 0.3 0.9 0.3 0.7 0 1-0.3 0.3-0.3 0.3-1.1v-7.9q0-0.7-0.3-1-0.3-0.3-1-0.3z"></path></g><g id="&lt;Group&gt;"><path id="&lt;Compound Path&gt;" fill-rule="evenodd" class="s2" d="m943.7 619.3q-1.6 0-2.6-0.9-1.1-0.9-1.1-2.8v-7.9q0-1.7 1.1-2.8 1-0.8 2.6-0.8 1.6 0 2.6 0.8 1.1 1.1 1.1 2.8v7.9q0 1.9-1.1 2.8-1 0.9-2.6 0.9zm0-12.9q-0.6 0-0.9 0.3-0.4 0.3-0.4 1v7.9q0 0.8 0.4 1.1 0.3 0.3 0.9 0.3 0.7 0 0.9-0.3 0.3-0.3 0.3-1.1v-7.9q0-0.7-0.3-1-0.2-0.3-0.9-0.3z"></path></g><g id="&lt;Group&gt;"><path id="&lt;Compound Path&gt;" class="s2" d="m951.4 606.5v3.8h2.7v2.3h-2.7v6.6h-2.4v-15h6.4v2.3z"></path></g><g id="&lt;Group&gt;"><path id="&lt;Compound Path&gt;" fill-rule="evenodd" class="s2" d="m959 604.2v15h-2.4v-15z"></path></g><g id="&lt;Group&gt;"><path id="&lt;Compound Path&gt;" class="s2" d="m968.3 619.2h-1.5l-3.7-7.6v7.6h-2.4v-15h1.4l3.8 7.6v-7.6h2.4z"></path></g><g id="&lt;Group&gt;"><path id="&lt;Compound Path&gt;" class="s2" d="m973.4 619.3q-1.6 0-2.6-0.9-1-1-1-2.8v-7.9q0-1.7 1-2.8 1-0.8 2.6-0.8 1.7 0 2.6 0.8 1.1 1.1 1.1 2.8v1.4h-2.5v-1.4q0-0.7-0.2-1-0.4-0.3-1-0.3-0.6 0-0.9 0.3-0.3 0.3-0.3 1v7.9q0 0.8 0.3 1.1 0.3 0.3 0.9 0.3 0.6 0 1-0.3 0.2-0.3 0.2-1.1v-2.7h-1.2v-2.3h3.7v5q0 1.9-1.1 2.8-0.9 0.9-2.6 0.9z"></path></g></g></g><g id="&lt;Group&gt;"><g id="&lt;Group&gt;"><g id="&lt;Group&gt;"><g id="&lt;Group&gt;"><path id="&lt;Path&gt;" class="s2" d="m287 640.6h-7.7q-0.4-1-0.9-1.9c-4.4-8.7-9.7-17-15.6-24.4q-2.1-2.6-4.2-5.1c-6.3-7.1-13.2-13.7-20.8-19.6q-1.9-1.6-4.1-3.1c-6.5-4.7-13.5-8.8-20.7-12.4q-2.1-1-4.1-2-10-4.6-20.7-7.6-2.1-0.5-4.2-1-10.1-2.5-20.8-3.6-1.9-0.1-4-0.3-4.8-0.2-9.8-0.2-5.5 0-11 0.3-2.1 0.1-4.1 0.3c-7.1 0.9-14.1 2.1-20.7 3.8q-2.1 0.6-4.2 1.2c-7.1 2.1-14 4.6-20.7 7.7q-2 1-4.1 2c-7.4 3.6-14.3 8-20.8 12.7q-2.1 1.7-4.1 3.3c-7.1 5.5-13.5 11.7-19.5 18.5q-2 2.5-4.1 5.1c-6 7.4-11.3 15.7-15.6 24.4q-0.5 0.9-1 1.9h-7.7q0.5-1 1-1.9c6.2-12.8 14-24.7 23.3-35.1q2.1-2.3 4.1-4.6c6-6.1 12.6-11.9 19.5-17.1q2-1.5 4.1-2.9c6.5-4.4 13.6-8.5 20.8-11.9q2.1-1.1 4.1-2 10-4.4 20.7-7.2 2.1-0.6 4.2-1.2 10.1-2.4 20.7-3.4 2-0.3 4.1-0.4 5.5-0.4 11-0.4 5 0 9.8 0.3 2.1 0.1 4 0.3 10.7 1 20.8 3.4 2.1 0.4 4.2 1c7.1 1.9 14 4.3 20.7 7q2 1 4.1 2c7.2 3.3 14.1 7.2 20.7 11.6q2 1.4 4.1 2.9c7.5 5.4 14.4 11.4 20.8 18q2.1 2.3 4.2 4.4c9.3 10.6 17.1 22.5 23.3 35.3q0.5 0.9 0.9 1.9z"></path></g><g id="&lt;Group&gt;"><path id="&lt;Path&gt;" fill-rule="evenodd" class="s2" d="m293.6 638.7v3.5h-288.3v-3.5z"></path></g><g id="&lt;Group&gt;"><g id="&lt;Group&gt;"><path id="&lt;Path&gt;" class="s2" d="m40.2 599v41.4h-4.1v-36.8q2.1-2.3 4.1-4.6z"></path></g><g id="&lt;Group&gt;"><path id="&lt;Path&gt;" class="s2" d="m63.8 579v22.6h-4.1v-19.7q2-1.5 4.1-2.9z"></path></g><g id="&lt;Group&gt;"><path id="&lt;Path&gt;" fill-rule="evenodd" class="s2" d="m63.8 621.7v18.7h-4.1v-18.7z"></path></g><g id="&lt;Group&gt;"><path id="&lt;Path&gt;" class="s2" d="m88.7 565.1v36.5h-4.1v-34.5q2.1-1.1 4.1-2z"></path></g><g id="&lt;Group&gt;"><path id="&lt;Path&gt;" fill-rule="evenodd" class="s2" d="m88.7 621.7v18.7h-4.1v-18.7z"></path></g><g id="&lt;Group&gt;"><path id="&lt;Path&gt;" class="s2" d="m113.6 556.7v44.9h-4.2v-43.7q2.1-0.6 4.2-1.2z"></path></g><g id="&lt;Group&gt;"><path id="&lt;Path&gt;" fill-rule="evenodd" class="s2" d="m113.6 621.7v18.7h-4.2v-18.7z"></path></g><g id="&lt;Group&gt;"><path id="&lt;Path&gt;" class="s2" d="m138.4 552.9v48.7h-4.1v-48.3q2-0.3 4.1-0.4z"></path></g><g id="&lt;Group&gt;"><path id="&lt;Path&gt;" fill-rule="evenodd" class="s2" d="m138.4 621.7v18.7h-4.1v-18.7z"></path></g><g id="&lt;Group&gt;"><path id="&lt;Path&gt;" class="s2" d="m163.2 553.1v48.5h-4v-48.8q2.1 0.1 4 0.3z"></path></g><g id="&lt;Group&gt;"><path id="&lt;Path&gt;" fill-rule="evenodd" class="s2" d="m163.2 621.7v18.7h-4v-18.7z"></path></g><g id="&lt;Group&gt;"><path id="&lt;Path&gt;" class="s2" d="m188.2 557.5v44.1h-4.2v-45.1q2.1 0.4 4.2 1z"></path></g><g id="&lt;Group&gt;"><path id="&lt;Path&gt;" fill-rule="evenodd" class="s2" d="m188.2 621.7v18.7h-4.2v-18.7z"></path></g><g id="&lt;Group&gt;"><path id="&lt;Path&gt;" class="s2" d="m213 566.5v35.1h-4.1v-37.1q2 1 4.1 2z"></path></g><g id="&lt;Group&gt;"><path id="&lt;Path&gt;" fill-rule="evenodd" class="s2" d="m213 621.7v18.7h-4.1v-18.7z"></path></g><g id="&lt;Group&gt;"><path id="&lt;Path&gt;" class="s2" d="m237.8 581v20.6h-4.1v-23.5q2 1.4 4.1 2.9z"></path></g><g id="&lt;Group&gt;"><path id="&lt;Path&gt;" fill-rule="evenodd" class="s2" d="m237.8 621.7v18.7h-4.1v-18.7z"></path></g><g id="&lt;Group&gt;"><path id="&lt;Path&gt;" class="s2" d="m262.8 603.4v37h-4.2v-41.4q2.1 2.3 4.2 4.4z"></path></g></g></g></g><g id="&lt;Group&gt;"><g id="&lt;Group&gt;"><path id="&lt;Compound Path&gt;" class="s2" d="m67.1 606.5h-2.5v12.7h-2.4v-12.7h-2.5v-2.3h7.4z"></path></g><g id="&lt;Group&gt;"><path id="&lt;Compound Path&gt;" class="s2" d="m73.1 613.9v5.3h-2.5v-5.3l-3-9.7h2.6l1.6 5.5 1.8-5.5h2.5z"></path></g><g id="&lt;Group&gt;"><path id="&lt;Compound Path&gt;" class="s2" d="m84.6 619.2h-1.5l-3.7-7.6v7.6h-2.4v-15h1.4l3.7 7.6v-7.6h2.5z"></path></g><g id="&lt;Group&gt;"><path id="&lt;Compound Path&gt;" class="s2" d="m88.6 606.5v3.8h2.8v2.3h-2.8v4.2h4v2.4h-6.4v-15h6.4v2.3z"></path></g><g id="&lt;Group&gt;"><path id="&lt;Compound Path&gt;" class="s2" d="m104.4 606.5h-2.6v12.7h-2.4v-12.7h-2.5v-2.3h7.5z"></path></g><g id="&lt;Group&gt;"><path id="&lt;Compound Path&gt;" class="s2" d="m107.8 606.5v3.8h2.8v2.3h-2.8v4.2h4v2.4h-6.4v-15h6.4v2.3z"></path></g><g id="&lt;Group&gt;"><path id="&lt;Compound Path&gt;" class="s2" d="m115.7 606.5v3.8h2.8v2.3h-2.8v4.2h4.1v2.4h-6.5v-15h6.5v2.3z"></path></g><g id="&lt;Group&gt;"><path id="&lt;Compound Path&gt;" class="s2" d="m124.6 619.3q-1.6 0-2.6-0.9-1.1-0.9-1.1-2.8v-1.9h2.4v1.9q0 0.8 0.4 1.1 0.2 0.3 0.9 0.3 0.6 0 0.9-0.3 0.4-0.3 0.4-1.1v-0.9q0-0.9-1-1.7-0.1-0.1-0.9-0.6-1-0.4-1.5-0.9-0.8-0.7-1.1-1.5-0.5-0.9-0.5-1.8v-0.5q0-1.7 1.1-2.8 1-0.8 2.6-0.8 1.6 0 2.5 0.8 1.2 1.1 1.2 2.8v1.4h-2.4v-1.4q0-0.7-0.4-1-0.3-0.3-0.9-0.3-0.7 0-0.9 0.3-0.4 0.3-0.4 1v0.5q0 0.9 0.8 1.6 0.3 0.2 1 0.5 1.1 0.6 1.6 1 1.6 1.3 1.6 3.4v0.9q0 1.9-1.2 2.8-0.9 0.9-2.5 0.9z"></path></g><g id="&lt;Group&gt;"><path id="&lt;Compound Path&gt;" fill-rule="evenodd" class="s2" d="m136.8 619.2h-3.7v-15h3.7q1.6 0 2.5 1 1.2 0.9 1.2 2.7v7.6q0 0.9-0.3 1.6-0.3 0.7-0.9 1.2-0.9 0.9-2.5 0.9zm-1.3-2.4h1.3q0.7 0 0.9-0.2 0.3-0.3 0.3-1.1v-7.6q0-0.8-0.3-1-0.3-0.4-0.9-0.4h-1.3z"></path></g><g id="&lt;Group&gt;"><path id="&lt;Compound Path&gt;" fill-rule="evenodd" class="s2" d="m147 616.8h-2.7l-0.5 2.4h-2.4l3.1-15h2.4l3.1 15h-2.5zm-0.4-2.4l-1-5.3-0.9 5.3z"></path></g><g id="&lt;Group&gt;"><path id="&lt;Compound Path&gt;" class="s2" d="m161.4 604.2v15h-2.4v-7.5l-2 5.1h-1.5l-1.9-5.1v7.5h-2.5v-15h1.4l3.8 8.3 3.7-8.3z"></path></g><g id="&lt;Group&gt;"><path id="&lt;Compound Path&gt;" fill-rule="evenodd" class="s2" d="m165.6 619.2h-2.4v-15h3.6q1.6 0 2.6 1 1.1 0.9 1.1 2.7v1.6q0 1.9-1.1 2.8-1 0.9-2.6 0.9h-1.2zm0-8.3h1.2q0.7 0 0.9-0.3 0.3-0.2 0.3-1v-1.7q0-0.6-0.3-1-0.2-0.2-0.9-0.2h-1.2z"></path></g><g id="&lt;Group&gt;"><path id="&lt;Compound Path&gt;" fill-rule="evenodd" class="s2" d="m177.7 619.2h-2.4v-15h3.7q1.5 0 2.5 1 1.1 0.9 1.1 2.7v1.6q0 1.9-1.1 2.8-0.9 0.9-2.5 0.9h-1.3zm0-8.3h1.3q0.5 0 0.9-0.3 0.3-0.2 0.3-1v-1.7q0-0.6-0.3-1-0.4-0.2-0.9-0.2h-1.3z"></path></g><g id="&lt;Group&gt;"><path id="&lt;Compound Path&gt;" fill-rule="evenodd" class="s2" d="m191.3 619.2h-2.6l-1.2-6h-1.1v6h-2.5v-15h3.7q1.6 0 2.6 1 1.1 0.9 1.1 2.7v1.6q0 1.9-1.1 2.8-0.2 0.1-0.3 0.2zm-2.4-11.1q0-0.8-0.4-1.1-0.2-0.3-0.9-0.3h-1.3v4.2h1.3q0.7 0 0.9-0.2 0.4-0.3 0.4-1z"></path></g><g id="&lt;Group&gt;"><path id="&lt;Compound Path&gt;" fill-rule="evenodd" class="s2" d="m196.2 619.3q-1.6 0-2.5-0.9-1.2-0.9-1.2-2.8v-7.9q0-1.7 1.2-2.8 0.9-0.8 2.5-0.8 1.6 0 2.5 0.8 1.2 1.1 1.2 2.8v7.9q0 1.9-1.2 2.8-0.9 0.9-2.5 0.9zm0-12.9q-0.6 0-0.9 0.3-0.4 0.3-0.4 1v7.9q0 0.8 0.4 1.1 0.3 0.3 0.9 0.3 0.7 0 0.9-0.3 0.4-0.3 0.4-1.1v-7.9q0-0.7-0.4-1-0.2-0.3-0.9-0.3z"></path></g><g id="&lt;Group&gt;"><path id="&lt;Compound Path&gt;" fill-rule="evenodd" class="s2" d="m204.9 619.3q-1.6 0-2.5-0.9-1.1-0.9-1.1-2.8v-7.9q0-1.7 1.1-2.8 0.9-0.8 2.5-0.8 1.7 0 2.7 0.8 1 1.1 1 2.8v7.9q0 1.9-1 2.8-1 0.9-2.7 0.9zm0-12.9q-0.5 0-0.9 0.3-0.3 0.3-0.3 1v7.9q0 0.8 0.3 1.1 0.4 0.3 0.9 0.3 0.7 0 1-0.3 0.3-0.3 0.3-1.1v-7.9q0-0.7-0.3-1-0.3-0.3-1-0.3z"></path></g><g id="&lt;Group&gt;"><path id="&lt;Compound Path&gt;" class="s2" d="m212.6 606.5v3.8h2.8v2.3h-2.8v6.6h-2.4v-15h6.5v2.3z"></path></g><g id="&lt;Group&gt;"><path id="&lt;Compound Path&gt;" fill-rule="evenodd" class="s2" d="m220.2 604.2v15h-2.4v-15z"></path></g><g id="&lt;Group&gt;"><path id="&lt;Compound Path&gt;" class="s2" d="m229.5 619.2h-1.3l-3.8-7.6v7.6h-2.4v-15h1.3l3.8 7.6v-7.6h2.4z"></path></g><g id="&lt;Group&gt;"><path id="&lt;Compound Path&gt;" class="s2" d="m234.7 619.3q-1.6 0-2.6-0.9-1.1-1-1.1-2.8v-7.9q0-1.7 1.1-2.8 1-0.8 2.6-0.8 1.6 0 2.5 0.8 1.2 1.1 1.2 2.8v1.4h-2.4v-1.4q0-0.7-0.4-1-0.3-0.3-0.9-0.3-0.7 0-0.9 0.3-0.4 0.3-0.4 1v7.9q0 0.8 0.4 1.1 0.2 0.3 0.9 0.3 0.6 0 0.9-0.3 0.4-0.3 0.4-1.1v-2.7h-1.3v-2.3h3.7v5q0 1.9-1.2 2.8-0.9 0.9-2.5 0.9z"></path></g></g></g></g></svg>